<?xml version="1.0" encoding="UTF-8"?>
<svg id="Layer_1" data-name="Layer 1" xmlns="http://www.w3.org/2000/svg" xmlns:xlink="http://www.w3.org/1999/xlink" viewBox="0 0 923.86 353.1">
  <defs>
    <style>
      .cls-1 {
        fill: #99f;
      }

      .cls-2 {
        fill: #fff;
      }

      .cls-3 {
        fill: #300;
      }

      .cls-4 {
        fill: #001e36;
      }

      .cls-5 {
        fill: #f36;
      }

      .cls-6 {
        fill: #49021f;
      }

      .cls-7 {
        fill: #55e5c5;
      }

      .cls-8 {
        fill: #31a8ff;
      }

      .cls-9 {
        fill: #00005b;
      }

      .cls-10 {
        fill: url(#linear-gradient);
      }

      .cls-11 {
        fill: #ff9a00;
      }
    </style>
    <linearGradient id="linear-gradient" x1="648.44" y1="356.01" x2="648.44" y2="177.4" gradientTransform="translate(0 356.01) scale(1 -1)" gradientUnits="userSpaceOnUse">
      <stop offset="0" stop-color="#203d51"/>
      <stop offset="1" stop-color="#143247"/>
    </linearGradient>
  </defs>
  <g id="Layer_2" data-name="Layer 2">
    <g id="Surfaces">
      <g id="Video_Audio_Surface" data-name="Video Audio Surface">
        <g id="Outline_no_shadow" data-name="Outline no shadow">
          <path class="cls-9" d="M34.7,2.35h115.2c17.47,0,31.59,14.12,31.59,31.59v110.74c0,17.47-14.12,31.59-31.59,31.59H34.7c-17.47,0-31.59-14.12-31.59-31.59V33.94C3.12,16.47,17.24,2.35,34.7,2.35Z"/>
        </g>
      </g>
    </g>
    <g id="Outlined_Mnemonics_Logos" data-name="Outlined Mnemonics Logos">
      <g id="Pr">
        <path class="cls-1" d="M45.48,124.31V47.84c0-.52.22-.82.74-.82,1.26,0,2.45,0,4.16-.07,1.78-.07,3.64-.07,5.65-.15,2.01-.07,4.16-.07,6.47-.15,2.3-.07,4.53-.07,6.76-.07,6.09,0,11.15.74,15.31,2.3,3.72,1.26,7.13,3.34,9.96,6.09,2.38,2.38,4.24,5.28,5.43,8.47,1.11,3.12,1.71,6.32,1.71,9.66,0,6.39-1.49,11.67-4.46,15.83-2.97,4.16-7.13,7.28-11.97,9.07-5.05,1.86-10.63,2.53-16.72,2.53-1.78,0-2.97,0-3.72-.07s-1.78-.07-3.2-.07v23.86c.07.52-.3.97-.82,1.04h-14.42c-.59,0-.89-.3-.89-.97ZM61.68,61.36v24.97c1.04.07,2.01.15,2.9.15h3.94c2.9,0,5.8-.45,8.55-1.34,2.38-.67,4.46-2.08,6.09-3.94,1.56-1.86,2.3-4.38,2.3-7.65.07-2.3-.52-4.61-1.71-6.61-1.26-1.93-3.05-3.42-5.2-4.24-2.75-1.11-5.72-1.56-8.77-1.49-1.93,0-3.64,0-5.05.07-1.49-.07-2.53,0-3.05.07h0Z"/>
        <path class="cls-1" d="M112.07,65.67h13.01c.74,0,1.34.52,1.56,1.19.22.59.37,1.19.45,1.86.15.74.3,1.56.37,2.3.07.82.15,1.71.15,2.68,2.23-2.6,4.91-4.76,7.95-6.39,3.42-1.93,7.36-2.9,11.3-2.9.52-.07.97.3,1.04.82v14.79c0,.59-.37.82-1.19.82-2.68-.07-5.43.15-8.03.74-2.16.45-4.24,1.11-6.24,2.01-1.41.67-2.75,1.56-3.79,2.75v37.9c0,.74-.3,1.04-.97,1.04h-14.64c-.59.07-1.11-.3-1.19-.89v-41.47c0-1.78,0-3.64-.07-5.57s-.07-3.86-.15-5.8c0-1.71-.15-3.34-.3-5.05-.07-.37.15-.74.52-.82,0-.07.15-.07.22,0h0Z"/>
      </g>
    </g>
  </g>
  <g id="Layer_2-2" data-name="Layer 2">
    <g id="Surfaces-2" data-name="Surfaces">
      <g id="Video_Audio_Surface-2" data-name="Video Audio Surface">
        <g id="Outline_no_shadow-2" data-name="Outline no shadow">
          <rect class="cls-9" x="188.15" y="1.98" width="178.37" height="173.91" rx="31.59" ry="31.59"/>
        </g>
      </g>
    </g>
    <g id="Outlined_Mnemonics_Logos-2" data-name="Outlined Mnemonics Logos">
      <g id="Ae">
        <path class="cls-1" d="M259.8,106.03h-27.64l-5.62,17.5c-.16.66-.76,1.11-1.44,1.08h-14c-.8,0-1.08-.44-.84-1.32l23.93-68.64c.24-.72.48-1.42.72-2.34.31-1.6.47-3.22.48-4.85-.06-.4.22-.78.63-.84.07,0,.14,0,.21,0h19.03c.56,0,.88.2.96.6l27.16,76.18c.24.8,0,1.2-.72,1.2h-15.56c-.55.06-1.06-.3-1.2-.84l-6.1-17.74ZM236.47,91.27h18.91c-.48-1.59-1.04-3.39-1.68-5.38-.64-1.99-1.32-4.13-2.03-6.4-.72-2.27-1.44-4.55-2.15-6.82-.72-2.27-1.38-4.47-1.97-6.58-.6-2.11-1.14-4.05-1.62-5.8h-.12c-.67,3.23-1.51,6.43-2.51,9.57-1.12,3.59-2.25,7.26-3.41,11.01-1.16,3.75-2.29,7.22-3.41,10.41Z"/>
        <path class="cls-1" d="M327.41,99.22h-23.57c.29,2.33,1.06,4.58,2.27,6.59,1.34,1.99,3.23,3.55,5.44,4.49,3,1.3,6.24,1.93,9.51,1.86,2.59-.05,5.18-.33,7.72-.85,2.27-.31,4.5-.89,6.64-1.73.4-.32.6-.12.6.6v11.37c.02.31-.04.62-.18.9-.14.22-.32.4-.54.54-2.37,1.05-4.86,1.79-7.41,2.21-3.47.65-7,.95-10.53.9-5.67,0-10.41-.88-14.24-2.63-3.62-1.59-6.81-4.01-9.33-7.06-2.35-2.87-4.1-6.19-5.15-9.75-1.03-3.52-1.56-7.16-1.56-10.83-.01-4,.62-7.98,1.85-11.79,1.19-3.71,3.08-7.16,5.56-10.17,2.45-2.97,5.51-5.38,8.97-7.06,3.51-1.71,7.66-2.33,12.44-2.33,3.97-.1,7.91.68,11.55,2.27,3.06,1.3,5.75,3.34,7.84,5.92,1.96,2.53,3.46,5.39,4.43,8.44.94,2.94,1.43,6.01,1.44,9.09,0,1.76-.06,3.35-.18,4.79-.12,1.44-.22,2.47-.3,3.11-.06.55-.53.96-1.08.96-.48,0-1.3.06-2.45.18-1.16.12-2.59.2-4.31.24-1.72.04-3.53-.25-5.44-.25ZM303.84,88.31h15.67c1.91,0,3.33-.02,4.25-.06.61-.06,1.21-.26,1.74-.58v-.72c-.02-.94-.19-1.86-.48-2.75-1.33-4.2-5.29-6.99-9.69-6.82-4.11-.25-7.99,1.96-9.87,5.62-.82,1.67-1.37,3.46-1.62,5.3Z"/>
      </g>
    </g>
  </g>
  <g id="Layer_2-3" data-name="Layer 2">
    <g id="Surfaces-3" data-name="Surfaces">
      <g id="Photo_Surface" data-name="Photo Surface">
        <g id="Outline_no_shadow-3" data-name="Outline no shadow">
          <rect class="cls-4" x="374.7" y="1.61" width="178.37" height="173.91" rx="31.59" ry="31.59"/>
        </g>
      </g>
    </g>
    <g id="Outlined_Mnemonics_Logos-3" data-name="Outlined Mnemonics Logos">
      <g id="Ps">
        <path class="cls-8" d="M414.86,123.56V47.1c0-.56.24-.84.72-.84,1.27,0,2.44-.02,4.19-.06,1.75-.04,3.65-.08,5.68-.12,2.03-.04,4.19-.08,6.46-.12,2.27-.04,4.53-.06,6.76-.06,6.06,0,11.17.76,15.32,2.27,3.74,1.27,7.16,3.35,9.99,6.1,2.4,2.39,4.26,5.26,5.44,8.44,1.12,3.09,1.69,6.35,1.68,9.63,0,6.38-1.48,11.65-4.43,15.79-2.97,4.16-7.15,7.32-11.97,9.03-5.03,1.88-10.61,2.51-16.75,2.51-1.76,0-2.99-.02-3.71-.06-.72-.04-1.79-.06-3.23-.06v23.87c.07.52-.29,1-.81,1.08-.09.01-.18.01-.27,0h-14.25c-.56,0-.84-.32-.84-.96ZM431.02,60.62v24.94c1.04.08,1.99.12,2.87.12h3.95c2.91,0,5.79-.47,8.56-1.37,2.37-.7,4.49-2.07,6.1-3.95,1.56-1.83,2.33-4.39,2.33-7.66.06-2.31-.54-4.6-1.74-6.58-1.26-1.92-3.07-3.4-5.2-4.25-2.78-1.08-5.75-1.59-8.73-1.5-1.91,0-3.61.02-5.09.06-1.48.04-2.49.1-3.05.18h0Z"/>
        <path class="cls-8" d="M517.37,81.03c-2.25-1.16-4.64-2-7.12-2.51-2.73-.63-5.52-.95-8.32-.96-1.51-.04-3.03.14-4.49.54-.93.21-1.76.74-2.33,1.5-.39.61-.6,1.31-.6,2.03.02.7.27,1.37.72,1.91.7.82,1.55,1.49,2.51,1.97,1.71.92,3.46,1.74,5.26,2.45,4.02,1.34,7.85,3.17,11.43,5.44,2.43,1.54,4.45,3.65,5.86,6.16,1.19,2.37,1.78,5,1.73,7.66.07,3.51-.93,6.95-2.87,9.87-2.08,2.96-4.97,5.27-8.32,6.64-3.63,1.59-8.12,2.39-13.46,2.39-3.39.03-6.78-.29-10.11-.96-2.62-.48-5.17-1.28-7.6-2.39-.53-.28-.86-.84-.84-1.44v-12.92c-.03-.26.09-.51.3-.66.21-.12.47-.1.66.06,2.86,1.69,5.97,2.92,9.21,3.65,2.86.72,5.79,1.1,8.73,1.14,2.79,0,4.85-.36,6.16-1.08,1.21-.56,1.99-1.78,1.97-3.11,0-1.04-.6-2.03-1.79-2.99-1.2-.96-3.63-2.11-7.3-3.47-3.76-1.31-7.32-3.12-10.59-5.38-2.34-1.63-4.26-3.78-5.62-6.28-1.18-2.36-1.77-4.96-1.73-7.6,0-3.17.86-6.27,2.51-8.97,1.88-2.98,4.58-5.34,7.78-6.82,3.51-1.75,7.9-2.63,13.16-2.63,3.08-.02,6.16.2,9.21.66,2.21.28,4.37.86,6.41,1.73.33.09.6.34.72.66.08.29.12.59.12.9v12.09c.02.29-.12.56-.36.72-.32.16-.71.16-1.03,0Z"/>
      </g>
    </g>
  </g>
  <g>
    <rect class="cls-10" x="559.14" width="178.61" height="178.61" rx="40.75" ry="40.75"/>
    <path class="cls-2" d="M628.03,81.05l-24.24-24.26,29.97-30,29.96,29.98-34.36,34.4-.16-.16c1.92-3.12,1.53-7.26-1.18-9.97Z"/>
    <path class="cls-7" d="M697.23,89.53l-63.47,63.52-29.97-29.99,63.47-63.52,29.97,29.99Z"/>
  </g>
  <g id="Layer_2-4" data-name="Layer 2">
    <g id="Surfaces-4" data-name="Surfaces">
      <g id="Video_Audio_Surface-3" data-name="Video Audio Surface">
        <g id="Outline_no_shadow-4" data-name="Outline no shadow">
          <rect class="cls-9" x="745.49" y="4.31" width="178.37" height="173.91" rx="31.59" ry="31.59"/>
        </g>
      </g>
    </g>
    <g id="Outlined_Mnemonics_Logos-4" data-name="Outlined Mnemonics Logos">
      <g id="Me">
        <path class="cls-1" d="M770.64,49.57c.04-.44.43-.76.88-.72.01,0,.02,0,.03,0h20.92c.57-.08,1.1.28,1.25.84.53,2.08,1.17,4.57,1.93,7.48.76,2.91,1.57,6.12,2.44,9.63.87,3.51,1.76,7.1,2.67,10.77.91,3.67,1.8,7.24,2.67,10.71.87,3.47,1.61,6.66,2.22,9.57.61,2.91,1.1,5.33,1.48,7.24h.11c.3-1.68.83-3.91,1.59-6.7.76-2.79,1.63-5.92,2.61-9.39.98-3.47,1.99-7.04,3.01-10.71,1.02-3.67,2.03-7.3,3.01-10.89.98-3.59,1.91-6.92,2.78-9.99.87-3.07,1.57-5.64,2.1-7.72.08-.5.52-.86,1.02-.84h20.35c.49-.07.95.28,1.02.77,0,.02,0,.04,0,.06l2.73,76.46c.09.27.02.57-.17.78-.19.2-.46.31-.74.3h-14.78c-.2,0-.41-.06-.57-.18-.17-.17-.26-.42-.23-.66,0-4.07-.02-8.34-.06-12.8-.04-4.47-.1-8.95-.17-13.46-.08-4.51-.08-8.83,0-12.98.07-4.15.11-7.98.11-11.49,0-3.51.02-6.56.06-9.15.04-2.59.06-4.53.06-5.8h-.11c-.45,2-1.06,4.61-1.82,7.84-.76,3.23-1.65,6.86-2.67,10.89-1.02,4.03-2.12,8.2-3.3,12.5-1.18,4.31-2.31,8.58-3.41,12.8-1.1,4.23-2.16,8.18-3.18,11.85-1.02,3.67-1.88,6.9-2.56,9.69-.14.57-.66.97-1.25.96h-12.84c-.64.09-1.23-.33-1.36-.96-.68-2.79-1.46-6.02-2.33-9.69-.87-3.67-1.76-7.5-2.67-11.49-.91-3.99-1.88-8.08-2.9-12.26-1.02-4.19-1.99-8.24-2.9-12.14-.91-3.91-1.72-7.58-2.44-11.01-.72-3.43-1.38-6.46-1.99-9.09h-.23v9.45c0,3.67-.06,7.72-.17,12.15-.11,4.43-.23,9.05-.34,13.88-.11,4.83-.25,9.81-.4,14.96-.15,5.15-.34,10.23-.57,15.26,0,.64-.3.96-.91.96h-13.19c-.26.01-.51-.05-.74-.18-.19-.12-.25-.42-.17-.9l4.09-76.58Z"/>
        <path class="cls-1" d="M891.66,101.12h-23.57c.29,2.24,1.07,4.38,2.27,6.28,1.34,1.99,3.23,3.55,5.44,4.49,2.43,1.12,5.6,1.68,9.51,1.68,2.59.01,5.17-.21,7.72-.66,2.41-.43,4.75-1.13,7-2.09.4-.32.6-.12.6.6v11.37c.02.31-.04.62-.18.9-.14.22-.32.4-.54.54-2.48,1.17-5.09,2.04-7.78,2.57-3.47.65-7,.95-10.53.9-5.67,0-10.41-.88-14.24-2.63-3.62-1.59-6.81-4.01-9.33-7.06-2.35-2.87-4.1-6.19-5.15-9.75-1.03-3.52-1.56-7.16-1.56-10.83-.01-4,.62-7.98,1.85-11.79,1.19-3.71,3.08-7.16,5.56-10.17,2.45-2.97,5.51-5.38,8.97-7.06,3.9-1.8,8.15-2.68,12.44-2.57,3.97-.1,7.91.68,11.55,2.27,3.07,1.39,5.76,3.51,7.84,6.16,1.96,2.53,3.46,5.39,4.43,8.44.94,2.94,1.43,6.01,1.44,9.09,0,1.76-.06,3.35-.18,4.79-.12,1.44-.22,2.47-.3,3.11-.06.55-.53.96-1.08.96-.48,0-1.3.06-2.45.18-1.16.12-2.59.2-4.31.24-1.72.04-3.53.06-5.44.06ZM868.09,89.51h15.67c1.91,0,3.33-.02,4.25-.06.58,0,1.16-.06,1.74-.18v-.72c-.02-.94-.19-1.86-.48-2.75-1.33-4.2-5.29-6.99-9.69-6.82-4.11-.25-7.99,1.96-9.87,5.62-.82,1.53-1.36,3.19-1.62,4.91Z"/>
      </g>
    </g>
  </g>
  <rect class="cls-9" y="179.19" width="178.37" height="173.91" rx="31.59" ry="31.59"/>
  <path class="cls-1" d="M70.1,283.24h-27.64l-5.62,17.5c-.16.66-.76,1.11-1.44,1.08h-14c-.8,0-1.08-.44-.84-1.32l23.93-68.64c.24-.72.48-1.54.72-2.45.37-1.55.56-3.14.58-4.74-.06-.4.22-.78.63-.84.07,0,.14,0,.21,0h19.03c.56,0,.88.2.96.6l27.06,76.19c.24.8,0,1.2-.72,1.2h-15.56c-.55.06-1.06-.3-1.2-.84l-6.1-17.74ZM46.77,268.48h18.91c-.48-1.59-1.04-3.39-1.68-5.38-.64-1.99-1.32-4.13-2.03-6.4-.72-2.27-1.44-4.55-2.15-6.82-.72-2.27-1.38-4.47-1.97-6.58-.6-2.11-1.14-4.05-1.62-5.8h-.12c-.67,3.23-1.51,6.43-2.51,9.57-1.12,3.59-2.25,7.26-3.41,11.01-1.16,3.75-2.29,7.22-3.41,10.41h0Z"/>
  <path class="cls-1" d="M150.75,243.26v45.56c0,1.99.02,3.77.06,5.32.04,1.56.12,2.91.24,4.07.12,1.16.22,1.85.3,2.65.08.64-.2.96-.84.96h-12.8c-.61.06-1.19-.27-1.44-.84-.17-.61-.31-1.23-.42-1.85-.11-.52-.17-1.04-.18-1.57-2.41,2.15-5.27,3.72-8.38,4.61-2.69.73-5.47,1.12-8.26,1.14-2.74.03-5.47-.39-8.08-1.26-2.41-.82-4.59-2.22-6.34-4.07-1.9-2.06-3.33-4.51-4.19-7.18-1.07-3.42-1.58-7-1.5-10.59v-36.82c-.07-.46.25-.89.72-.96.08-.01.16-.01.24,0h14.22c.46-.07.89.26.96.72.01.08.01.16,0,.24v34.91c0,3.27.72,5.84,2.15,7.72,1.44,1.88,4.33,2.81,7.68,2.81,1.72.02,3.42-.28,5.03-.9,1.68-.59,3.27-1.42,4.71-2.45v-42.21c0-.56.36-.84,1.08-.84h14.19c.41-.06.78.23.84.63,0,.07,0,.14,0,.21Z"/>
  <g id="Layer_2-5" data-name="Layer 2">
    <g id="Surfaces-5" data-name="Surfaces">
      <g id="Photo_Surface-2" data-name="Photo Surface">
        <g id="Outline_no_shadow-5" data-name="Outline no shadow">
          <rect class="cls-4" x="187.65" y="178.61" width="178.37" height="173.91" rx="31.59" ry="31.59"/>
        </g>
      </g>
    </g>
    <g id="Outlined_Mnemonics_Logos-5" data-name="Outlined Mnemonics Logos">
      <g id="Lr">
        <path class="cls-8" d="M281.32,301.52h-47.14c-.8,0-1.2-.44-1.2-1.32v-75.98c-.07-.52.29-1,.81-1.08.09-.01.18-.01.27,0h14.6c.41-.06.78.23.84.63,0,.07,0,.14,0,.21v62.46h34.34c.72,0,1,.36.84,1.08l-2.15,12.92c-.01.36-.19.69-.48.9-.22.12-.47.18-.72.18Z"/>
        <path class="cls-8" d="M293.16,242.06h13.04c.73,0,1.36.49,1.56,1.2.28.52.49,1.09.6,1.68.17.77.29,1.55.36,2.33.08.84.12,1.73.12,2.69,2.24-2.6,4.93-4.77,7.96-6.4,3.4-1.84,7.21-2.76,11.07-2.69.52-.07,1,.29,1.08.81.01.09.01.18,0,.27v14.48c0,.56-.4.84-1.2.84-4.82-.3-9.64.56-14.06,2.51-1.5.65-2.86,1.58-4.01,2.75v37.93c0,.72-.32,1.08-.96,1.08h-14.48c-.58.08-1.11-.32-1.2-.9-.01-.1-.01-.2,0-.3v-41.16c0-1.75-.02-3.61-.06-5.56-.04-1.95-.1-3.89-.18-5.8-.05-1.64-.21-3.28-.48-4.91-.1-.37.13-.74.49-.84.11-.03.23-.03.34,0h0Z"/>
      </g>
    </g>
  </g>
  <g id="Surfaces-6" data-name="Surfaces">
    <g id="Publishing_Surface" data-name="Publishing Surface">
      <g id="Outline_no_shadow-6" data-name="Outline no shadow">
        <rect class="cls-6" x="559.84" y="179.19" width="178.37" height="173.91" rx="31.59" ry="31.59"/>
      </g>
    </g>
  </g>
  <g id="Outlined_Mnemonics_Logos-6" data-name="Outlined Mnemonics Logos">
    <g id="Id">
      <path class="cls-5" d="M624.61,224.68v76.22c0,.8-.36,1.2-1.08,1.2h-14.48c-.64,0-.96-.4-.96-1.2v-76.22c0-.64.36-.96,1.08-.96h14.48c.46-.07.89.26.96.72.01.08.01.16,0,.24Z"/>
      <path class="cls-5" d="M667.45,303.3c-5.51.08-10.96-1.06-15.97-3.35-4.67-2.16-8.57-5.69-11.19-10.11-2.71-4.51-4.07-10.15-4.07-16.93-.05-5.49,1.36-10.9,4.07-15.67,2.79-4.87,6.9-8.85,11.85-11.49,5.18-2.87,11.45-4.31,18.79-4.31.4,0,.92.02,1.56.06.64.04,1.4.1,2.27.18v-23.57c0-.56.24-.84.72-.84h15.08c.35-.05.67.19.72.54,0,.06,0,.12,0,.18v70.72c0,1.36.06,2.83.18,4.43.12,1.6.22,3.03.3,4.31.03.51-.26.98-.72,1.2-3.89,1.62-7.94,2.83-12.09,3.59-3.79.7-7.63,1.06-11.49,1.08ZM674.75,288.46v-32.67c-.65-.18-1.31-.3-1.97-.36-.82-.08-1.63-.12-2.45-.12-2.9-.03-5.77.63-8.38,1.91-2.53,1.26-4.7,3.16-6.28,5.5-1.64,2.39-2.45,5.54-2.45,9.45-.06,2.61.37,5.2,1.26,7.66.72,1.98,1.87,3.77,3.35,5.26,1.42,1.37,3.14,2.4,5.03,2.99,1.99.64,4.07.97,6.16.96,1.12,0,2.15-.04,3.11-.12.89-.07,1.77-.23,2.63-.48Z"/>
    </g>
  </g>
  <g id="Layer_2-6" data-name="Layer 2">
    <g id="Surfaces-7" data-name="Surfaces">
      <g id="Video_Audio_Surface-4" data-name="Video Audio Surface">
        <g id="Outline_no_shadow-7" data-name="Outline no shadow">
          <rect class="cls-9" x="744.93" y="179.19" width="178.37" height="173.91" rx="31.59" ry="31.59"/>
        </g>
      </g>
    </g>
    <g id="Outlined_Mnemonics_Logos-7" data-name="Outlined Mnemonics Logos">
      <g id="An">
        <path class="cls-1" d="M817.05,283.24h-27.64l-5.68,17.44c-.16.66-.76,1.11-1.44,1.08h-14c-.8,0-1.08-.44-.84-1.32l24.03-68.57c.24-.72.48-1.36.72-2.28.31-1.6.47-3.22.48-4.85-.06-.4.22-.78.63-.84.07,0,.14,0,.21,0h19.02c.56,0,.88.2.96.6l27.06,76.06c.24.8,0,1.2-.72,1.2h-15.56c-.55.06-1.06-.3-1.2-.84l-6.05-17.68ZM793.77,268.48h18.91c-.48-1.59-1.04-3.39-1.68-5.38-.64-1.99-1.32-4.13-2.03-6.4-.72-2.27-1.44-4.55-2.15-6.82-.72-2.27-1.38-4.47-1.97-6.58-.6-2.11-1.14-4.05-1.62-5.8h-.12c-.67,3.23-1.51,6.43-2.51,9.57-1.12,3.59-2.25,7.26-3.41,11.01-1.16,3.75-2.29,7.22-3.41,10.41Z"/>
        <path class="cls-1" d="M848.95,300.62v-44.1c0-1.36-.02-2.87-.06-4.55-.04-1.68-.1-3.27-.18-4.79-.08-1.51-.16-2.92-.24-3.8-.1-.24-.05-.52.12-.72.2-.17.46-.26.72-.24h11.94c.41-.01.82.07,1.2.24.32.17.55.48.6.84.16.48.34,1.02.54,1.62.22.79.36,1.6.42,2.42,2.31-2.03,4.99-3.59,7.9-4.61,2.89-1,5.92-1.5,8.97-1.5,2.38.01,4.74.39,7,1.14,5.29,1.69,9.48,5.77,11.31,11.01,1.2,3.07,1.67,7.04,1.67,11.91v35.13c0,.72-.32,1.08-.96,1.08l-13.98.12c-.58.08-1.11-.32-1.2-.9-.01-.1-.01-.2,0-.3v-33.33c-.04-2.23-.53-4.43-1.44-6.47-.64-1.5-1.7-2.79-3.05-3.71-1.53-.93-3.3-1.39-5.09-1.32-1.92-.03-3.83.32-5.62,1.02-1.64.65-3.14,1.61-4.43,2.81v40.99c0,.72-.32,1.08-.96,1.08h-14.1c-.52.07-1-.29-1.08-.81-.01-.09-.01-.18,0-.27Z"/>
      </g>
    </g>
  </g>
  <g id="Layer_2-7" data-name="Layer 2">
    <g id="Surfaces-8" data-name="Surfaces">
      <g id="Drawing_Surface" data-name="Drawing Surface">
        <g id="Outline_no_shadow-8" data-name="Outline no shadow">
          <rect class="cls-3" x="374.78" y="179.19" width="178.37" height="173.91" rx="31.59" ry="31.59"/>
        </g>
      </g>
    </g>
    <g id="Outlined_Mnemonics_Logos-8" data-name="Outlined Mnemonics Logos">
      <g id="Ai">
        <path class="cls-11" d="M461.22,283.56h-27.64l-5.62,17.47c-.16.66-.76,1.11-1.44,1.08h-14c-.8,0-1.08-.44-.84-1.32l23.93-68.92c.24-.72.48-1.54.72-2.45.31-1.6.47-3.22.48-4.85-.06-.4.22-.78.63-.84.07,0,.14,0,.21,0h19.02c.56,0,.88.2.96.6l27.16,76.58c.24.8,0,1.2-.72,1.2h-15.56c-.55.06-1.06-.3-1.2-.84l-6.1-17.71ZM437.88,268.48h18.91c-.48-1.59-1.04-3.39-1.68-5.38-.64-1.99-1.32-4.13-2.03-6.4-.72-2.27-1.44-4.55-2.15-6.82-.72-2.27-1.38-4.47-1.97-6.58-.6-2.11-1.14-4.05-1.62-5.8h-.12c-.67,3.23-1.51,6.43-2.51,9.57-1.12,3.59-2.25,7.26-3.41,11.01-1.16,3.75-2.29,7.22-3.41,10.41h0Z"/>
        <path class="cls-11" d="M500.94,236.41c-2.47.1-4.86-.86-6.58-2.63-1.71-1.85-2.62-4.3-2.51-6.82-.09-2.5.89-4.91,2.69-6.64,1.78-1.71,4.17-2.64,6.64-2.57,2.87,0,5.13.86,6.76,2.57,1.67,1.8,2.55,4.19,2.45,6.64.1,2.53-.83,4.99-2.57,6.82-1.83,1.8-4.32,2.75-6.88,2.63ZM492.68,300.91v-57.2c0-.72.32-1.08.96-1.08h14.72c.64,0,.96.36.96,1.08v57.2c0,.8-.32,1.2-.96,1.2h-14.6c-.72,0-1.08-.4-1.08-1.2Z"/>
      </g>
    </g>
  </g>
</svg>